<?xml version="1.0" encoding="UTF-8"?>
<svg id="Capa_1" xmlns="http://www.w3.org/2000/svg" version="1.1" viewBox="0 0 264.3 264.3">
  <!-- Generator: Adobe Illustrator 29.8.5, SVG Export Plug-In . SVG Version: 2.1.1 Build 2)  -->
  <defs>
    <style>
      .st0 {
        fill: #606060;
      }
    </style>
  </defs>
  <path class="st0" d="M0,264.3h176.2V88.1H0v176.2ZM22,175.7v-61.5c0-1.7,1.1-2.8,2.7-2.8h62c42,0,64.6,28.1,64.7,63.9,0,0,0,0,0,0v61.9c0,1.7-1.1,2.8-2.7,2.8h-23.1c-1.6,0-2.7-1.1-2.7-2.8v-61.5c0-25-12.8-38.6-36.5-38.6h-35.8v100.1c0,1.7-1.1,2.8-2.7,2.8h-23.1c-1.6,0-2.7-1.1-2.7-2.8v-61.5ZM176.2,88.1h88.1V0h-88.1v88.1ZM250.2,70.1c-.9.4-2.6.6-5.2.6s-2.9,0-4,0c-1,0-1.8-.1-2.4-.3-.6-.1-1-.4-1.3-.6-.3-.3-.5-.6-.7-1l-16.4-36-16.2,36c-.2.4-.4.7-.7,1-.3.3-.8.5-1.4.6-.6.1-1.4.2-2.5.3-1,0-2.3,0-4,0-2.6,0-4.3-.2-5.2-.6-.9-.4-1.1-1.1-.6-2.2l23.6-48.8c.3-.6,1-1,2.1-1.3,1.1-.3,2.7-.4,4.9-.4s2.1,0,2.9,0c.8,0,1.5.2,2,.3.6.1,1,.3,1.3.5.3.2.5.5.7.8l23.7,48.7c.5,1,.3,1.8-.6,2.2"/>
</svg>